<?xml version="1.0" encoding="UTF-8" standalone="no"?><!DOCTYPE svg PUBLIC "-//W3C//DTD SVG 1.1//EN" "http://www.w3.org/Graphics/SVG/1.1/DTD/svg11.dtd"><svg width="100%" height="100%" viewBox="0 0 8955 12366" version="1.1" xmlns="http://www.w3.org/2000/svg" xmlns:xlink="http://www.w3.org/1999/xlink" xml:space="preserve" xmlns:serif="http://www.serif.com/" style="fill-rule:evenodd;clip-rule:evenodd;stroke-linejoin:round;stroke-miterlimit:2;"><path d="M2500.03,12365.3l-2500.03,-0l0,-11938.9l8527.78,-0l-0,1845.5l-6027.75,0l0,3262.42l4743.14,0l0,1793.02l-4743.14,0l0,5037.95Z" style="fill:#334149;fill-rule:nonzero;"/><path d="M2926.42,11938.9l-2500.03,-0l-0,-11938.9l8527.78,0l-0,1845.5l-6027.75,-0l0,3262.42l4743.14,0l0,1793.02l-4743.14,0l0,5037.95Z" style="fill:#31ffff;fill-rule:nonzero;"/><path d="M2713.23,12152.1l-2500.03,0l0,-11938.9l8527.78,0l0,1845.5l-6027.74,0l-0,3262.42l4743.14,-0l-0,1793.02l-4743.14,-0l-0,5037.95Z" style="fill:#fff;fill-rule:nonzero;"/></svg>